<svg width="356" height="125" viewBox="0 0 356 125" fill="none" xmlns="http://www.w3.org/2000/svg">
<path fill-rule="evenodd" clip-rule="evenodd" d="M123.374 18.6142C139.382 18.6142 152.686 32.2778 155.084 50.08C170.429 52.8614 182.564 68.2946 182.564 86.8661C182.564 107.395 167.813 124.094 150.116 124.094H32.4479C14.7517 124.094 0 107.395 0 86.8661C0 68.4518 11.9416 53.1157 27.1047 50.1528C27.0994 49.9832 27.0994 49.8074 27.0994 49.6378C27.0994 22.2679 46.2947 0 69.8879 0C85.1605 0 98.9081 9.26448 106.544 24.1525C111.564 20.5472 117.351 18.6142 123.374 18.6142ZM108.525 114.628C104.393 114.628 101.115 113.943 98.6901 112.573C96.31 111.162 94.6259 109.212 93.6379 106.721C92.6499 104.19 92.1559 101.222 92.1559 97.8191V79.6412C92.1559 76.155 92.6499 73.1668 93.6379 70.6767C94.6259 68.145 96.31 66.1944 98.6901 64.8249C101.115 63.4553 104.393 62.7705 108.525 62.7705C112.567 62.7705 115.71 63.393 117.956 64.6381C120.246 65.8417 121.863 67.5433 122.806 69.7429C123.749 71.9425 124.22 74.4741 124.22 77.3378V81.6955H112.432V76.653C112.432 75.657 112.365 74.7024 112.23 73.7894C112.14 72.8763 111.826 72.1293 111.287 71.5482C110.748 70.9257 109.827 70.6144 108.525 70.6144C107.268 70.6144 106.325 70.9257 105.696 71.5482C105.112 72.1708 104.73 72.9593 104.551 73.9139C104.416 74.8269 104.349 75.8022 104.349 76.8398V100.558C104.349 101.679 104.438 102.716 104.618 103.671C104.843 104.584 105.247 105.331 105.831 105.912C106.459 106.452 107.357 106.721 108.525 106.721C109.782 106.721 110.681 106.431 111.219 105.85C111.758 105.227 112.095 104.439 112.23 103.484C112.365 102.53 112.432 101.554 112.432 100.558V95.2668H124.22V99.6245C124.22 102.488 123.749 105.061 122.806 107.344C121.908 109.585 120.313 111.37 118.023 112.698C115.778 113.984 112.612 114.628 108.525 114.628ZM20.7381 63.4553L30.573 113.881H43.3045L53.2742 63.4553H42.3615L36.9051 97.6946L31.0446 63.4553H20.7381ZM64.3295 63.4553L54.023 113.881H65.4073L67.2934 103.235H75.3096L77.1283 113.881H88.2431L78.0714 63.4553H64.3295ZM74.1644 96.5741H68.3712L71.2678 76.902L74.1644 96.5741ZM138.533 63.4553L128.227 113.881H139.611L141.497 103.235H149.513L151.332 113.881H162.447L152.275 63.4553H138.533ZM148.368 96.5741H142.575L145.472 76.902L148.368 96.5741Z" fill="white"/>
<path d="M216.812 125C211.349 125 206.785 124.004 203.12 122.012C199.454 120.02 196.687 116.958 194.819 112.826C192.95 108.62 191.908 103.197 191.692 96.557L208.187 94.0115C208.259 97.8482 208.582 100.947 209.157 103.308C209.804 105.669 210.667 107.366 211.745 108.399C212.895 109.432 214.26 109.948 215.842 109.948C217.854 109.948 219.148 109.247 219.723 107.846C220.37 106.444 220.693 104.968 220.693 103.419C220.693 99.7296 219.83 96.6308 218.106 94.1222C216.381 91.5398 214.045 88.9575 211.098 86.3751L203.551 79.6241C200.245 76.7466 197.442 73.5002 195.142 69.8849C192.914 66.1958 191.8 61.6582 191.8 56.2722C191.8 48.6726 193.992 42.8808 198.376 38.8966C202.761 34.8386 208.726 32.8096 216.273 32.8096C220.944 32.8096 224.682 33.6212 227.485 35.2444C230.36 36.8676 232.516 39.0072 233.954 41.6634C235.463 44.2457 236.469 47.0126 236.972 49.9638C237.547 52.8413 237.871 55.6081 237.942 58.2643L221.34 60.367C221.268 57.7109 221.088 55.4237 220.801 53.5054C220.585 51.5132 220.082 50.0007 219.291 48.9678C218.501 47.861 217.279 47.3077 215.626 47.3077C213.829 47.3077 212.499 48.0824 211.637 49.6318C210.846 51.1812 210.451 52.7306 210.451 54.2801C210.451 57.6002 211.206 60.3302 212.715 62.4698C214.296 64.5357 216.345 66.7123 218.86 68.9995L226.083 75.5292C229.893 78.8494 233.091 82.6122 235.678 86.8178C238.338 91.0234 239.667 96.225 239.667 102.423C239.667 106.628 238.733 110.465 236.864 113.933C234.996 117.327 232.336 120.02 228.886 122.012C225.508 124.004 221.484 125 216.812 125Z" fill="white"/>
<path d="M249.012 123.672V34.027H268.309V70.6596L282.972 34.027H301.838L285.667 74.5331L302.593 123.672H282.972L270.358 84.051L268.309 87.5925V123.672H249.012Z" fill="white"/>
<path d="M321.177 123.672V87.0391L304.575 34.027H322.795L331.096 62.3592L338.535 34.027H356L339.721 87.0391V123.672H321.177Z" fill="white"/>
</svg>
