<svg width="194" height="68" viewBox="0 0 194 68" fill="none" xmlns="http://www.w3.org/2000/svg">
<path fill-rule="evenodd" clip-rule="evenodd" d="M67.2316 10.1262C75.9555 10.1262 83.2053 17.5593 84.5118 27.2437C92.8744 28.7568 99.4872 37.1525 99.4872 47.2556C99.4872 58.4234 91.4483 67.5079 81.8049 67.5079H17.6823C8.03884 67.5079 0 58.4234 0 47.2556C0 37.2381 6.50747 28.8952 14.7705 27.2833C14.7676 27.1911 14.7676 27.0954 14.7676 27.0032C14.7676 12.1139 25.228 0 38.0849 0C46.4077 0 53.8993 5.03992 58.0607 13.1391C60.796 11.1777 63.9497 10.1262 67.2316 10.1262ZM59.1398 62.3579C56.8884 62.3579 55.1019 61.9854 53.7804 61.2403C52.4833 60.4727 51.5656 59.4115 51.0272 58.0569C50.4888 56.6797 50.2196 55.0654 50.2196 53.214V43.3251C50.2196 41.4286 50.4888 39.8031 51.0272 38.4484C51.5656 37.0712 52.4833 36.0101 53.7804 35.265C55.1019 34.52 56.8884 34.1474 59.1398 34.1474C61.3423 34.1474 63.0554 34.4861 64.279 35.1634C65.5271 35.8182 66.4081 36.7438 66.9221 37.9404C67.436 39.137 67.6929 40.5143 67.6929 42.0721V44.4427H61.2689V41.6996C61.2689 41.1577 61.2322 40.6384 61.1588 40.1417C61.1099 39.645 60.9385 39.2386 60.6449 38.9226C60.3512 38.5839 59.8495 38.4146 59.1398 38.4146C58.4546 38.4146 57.9407 38.5839 57.5981 38.9226C57.2799 39.2612 57.0719 39.6902 56.974 40.2095C56.9006 40.7062 56.8639 41.2367 56.8639 41.8012V54.7042C56.8639 55.3137 56.9128 55.8782 57.0107 56.3975C57.1331 56.8942 57.3533 57.3006 57.6715 57.6166C58.0141 57.9101 58.5035 58.0569 59.1398 58.0569C59.8251 58.0569 60.3145 57.8989 60.6082 57.5828C60.9018 57.2441 61.0854 56.8151 61.1588 56.2959C61.2322 55.7766 61.2689 55.246 61.2689 54.7042V51.8255H67.6929V54.1962C67.6929 55.754 67.436 57.1538 66.9221 58.3956C66.4326 59.6147 65.5638 60.5856 64.3158 61.308C63.0921 62.0079 61.3668 62.3579 59.1398 62.3579ZM11.301 34.52L16.6604 61.9515H23.5984L29.0313 34.52H23.0844L20.111 53.1463L16.9174 34.52H11.301ZM35.0558 34.52L29.4394 61.9515H35.6431L36.671 56.1604H41.0393L42.0304 61.9515H48.0874L42.5443 34.52H35.0558ZM40.4152 52.5367H37.2583L38.8368 41.835L40.4152 52.5367ZM75.4927 34.52L69.8763 61.9515H76.08L77.1079 56.1604H81.4762L82.4673 61.9515H88.5243L82.9812 34.52H75.4927ZM79.2737 41.835L80.8521 52.5367H77.6952L79.2737 41.835Z" fill="#4997D3"/>
<path d="M118.15 68.0005C115.174 68.0005 112.687 67.4587 110.689 66.375C108.692 65.2913 107.184 63.6256 106.165 61.3778C105.147 59.09 104.579 56.1399 104.462 52.5275L113.45 51.1428C113.489 53.2299 113.666 54.9157 113.979 56.2001C114.332 57.4845 114.802 58.4077 115.389 58.9696C116.016 59.5315 116.76 59.8125 117.622 59.8125C118.718 59.8125 119.423 59.4312 119.737 58.6686C120.089 57.9059 120.265 57.1032 120.265 56.2603C120.265 54.2534 119.795 52.5676 118.855 51.203C117.915 49.7982 116.642 48.3933 115.037 46.9885L110.924 43.3159C109.122 41.7506 107.595 39.9845 106.342 38.0178C105.127 36.0109 104.52 33.5424 104.52 30.6124C104.52 26.4782 105.715 23.3274 108.104 21.16C110.493 18.9524 113.744 17.8486 117.857 17.8486C120.402 17.8486 122.439 18.2901 123.967 19.1732C125.533 20.0562 126.708 21.2202 127.492 22.6651C128.314 24.07 128.862 25.5751 129.137 27.1806C129.45 28.746 129.626 30.2511 129.665 31.6961L120.618 32.84C120.579 31.3951 120.481 30.1508 120.324 29.1072C120.207 28.0235 119.932 27.2007 119.502 26.6388C119.071 26.0367 118.405 25.7357 117.504 25.7357C116.525 25.7357 115.8 26.1571 115.33 27C114.899 27.8429 114.684 28.6858 114.684 29.5287C114.684 31.3349 115.095 32.82 115.918 33.9839C116.779 35.1078 117.896 36.2919 119.267 37.5361L123.203 41.0883C125.279 42.8945 127.022 44.9415 128.432 47.2293C129.881 49.5172 130.605 52.3469 130.605 55.7184C130.605 58.0063 130.096 60.0934 129.078 61.9799C128.059 63.8262 126.61 65.2913 124.73 66.375C122.889 67.4587 120.696 68.0005 118.15 68.0005Z" fill="#222222"/>
<path d="M135.697 67.2781V18.5109H146.214V38.4392L154.204 18.5109H164.485L155.672 40.5464L164.896 67.2781H154.204L147.33 45.7242L146.214 47.6508V67.2781H135.697Z" fill="#222222"/>
<path d="M175.024 67.2781V47.3498L165.976 18.5109H175.905L180.429 33.9237L184.482 18.5109H194L185.129 47.3498V67.2781H175.024Z" fill="#222222"/>
</svg>
